<?xml version="1.0" standalone="no"?>
<!DOCTYPE svg PUBLIC "-//W3C//DTD SVG 20010904//EN"
 "http://www.w3.org/TR/2001/REC-SVG-20010904/DTD/svg10.dtd">
<svg version="1.0" xmlns="http://www.w3.org/2000/svg"
 width="800.000000pt" height="800.000000pt" viewBox="0 0 800.000000 800.000000"
 preserveAspectRatio="xMidYMid meet">

<g transform="translate(0.000000,800.000000) scale(0.100000,-0.100000)"
fill="#886845" stroke="none">
<path d="M5890 6626 c-20 -6 -60 -36 -95 -71 -59 -60 -69 -75 -95 -145 -11
-28 -14 -480 -17 -2335 -3 -1373 -1 -2340 5 -2400 10 -114 32 -171 87 -227 59
-60 116 -82 222 -86 85 -4 96 -2 143 24 66 36 94 65 124 128 41 87 46 216 46
1178 0 726 2 887 13 903 21 28 103 11 209 -46 10 -5 46 -24 80 -41 35 -18 65
-35 68 -39 3 -3 12 -9 20 -12 8 -4 27 -15 41 -25 15 -9 41 -26 58 -37 17 -10
31 -23 31 -27 0 -4 6 -8 13 -8 6 0 30 -17 52 -38 112 -103 145 -117 274 -117
90 0 112 3 147 22 94 50 149 156 149 283 -1 85 -27 141 -101 217 -66 68 -253
210 -314 239 -8 4 -28 18 -45 30 -35 25 -224 121 -305 154 -30 12 -64 26 -75
30 -11 5 -45 16 -75 26 -30 10 -59 22 -65 26 -5 4 -18 8 -30 8 -44 0 -129 38
-139 62 -6 14 -9 222 -8 543 1 286 -1 759 -6 1050 l-7 530 -29 49 c-35 60
-109 133 -155 152 -39 16 -168 17 -221 0z"/>
<path d="M4550 6295 c-148 -28 -244 -80 -348 -189 -132 -138 -176 -255 -177
-466 0 -142 -1 -135 59 -260 19 -40 95 -150 120 -175 56 -55 149 -109 271
-158 62 -25 236 -41 299 -27 162 36 231 73 341 184 88 88 125 145 163 251 51
143 32 347 -47 499 -69 133 -247 287 -371 321 -41 11 -193 34 -220 34 -14 -1
-54 -7 -90 -14z"/>
<path d="M2839 5450 c-88 -29 -148 -58 -217 -107 -80 -57 -124 -103 -170 -178
-67 -109 -91 -203 -91 -350 0 -99 18 -208 38 -228 6 -6 11 -17 11 -24 0 -11
45 -88 60 -103 3 -3 22 -27 44 -53 38 -47 135 -127 156 -127 5 0 10 -4 10 -10
0 -5 9 -10 19 -10 11 0 22 -4 26 -10 14 -22 188 -60 277 -60 180 0 350 69 458
186 64 69 104 137 137 229 26 74 28 91 28 230 -1 98 -5 164 -14 190 -16 47
-42 108 -51 115 -3 3 -17 24 -32 47 -78 120 -223 223 -377 267 -76 22 -239 20
-312 -4z"/>
<path d="M1225 4631 c-11 -5 -42 -14 -70 -20 -154 -37 -328 -177 -395 -319
-80 -169 -90 -359 -30 -532 23 -64 100 -179 150 -223 78 -69 96 -81 161 -114
100 -50 163 -63 302 -63 100 0 132 4 177 21 30 11 64 23 75 26 32 9 167 103
198 137 48 53 101 141 135 226 43 106 55 276 26 378 -16 61 -63 165 -76 170
-4 2 -8 8 -8 14 0 15 -50 78 -100 127 -81 79 -191 140 -300 167 -60 15 -213
18 -245 5z"/>
<path d="M4627 4614 c-3 -4 -23 -10 -44 -14 -21 -5 -61 -13 -90 -19 -98 -20
-210 -86 -299 -175 -92 -93 -124 -150 -155 -281 -26 -110 -21 -250 12 -321 10
-24 24 -56 29 -70 19 -49 89 -139 154 -196 107 -96 235 -162 342 -176 188 -26
419 43 549 163 19 17 110 158 133 207 37 76 49 184 36 318 -6 63 -14 124 -19
135 -38 93 -60 129 -131 214 -47 56 -249 159 -364 186 -41 9 -85 21 -98 26
-27 11 -46 11 -55 3z"/>
<path d="M2870 3795 c-30 -7 -89 -28 -130 -46 -184 -83 -302 -220 -369 -430
-6 -19 -11 -96 -11 -170 0 -138 13 -202 55 -265 8 -13 15 -28 15 -35 0 -14 88
-126 128 -161 145 -129 337 -192 509 -168 111 16 176 37 257 85 177 103 280
269 308 492 9 73 9 106 0 139 -7 25 -12 58 -12 76 0 42 -70 181 -125 248 -80
98 -237 210 -293 210 -12 0 -23 4 -26 9 -13 21 -235 33 -306 16z"/>
<path d="M4512 2954 c-63 -17 -93 -31 -193 -96 -130 -82 -217 -193 -265 -335
-23 -67 -27 -96 -28 -203 -1 -98 3 -136 17 -175 24 -64 37 -96 48 -115 5 -8
12 -22 16 -30 19 -39 101 -127 173 -185 111 -87 230 -125 397 -125 116 0 226
26 293 70 8 6 25 14 37 20 57 24 174 148 211 224 65 132 76 179 75 327 -1 169
-16 222 -97 341 -81 120 -261 244 -411 283 -73 19 -202 19 -273 -1z"/>
</g>
</svg>
