<?xml version="1.0" standalone="no"?>
<!DOCTYPE svg PUBLIC "-//W3C//DTD SVG 20010904//EN"
 "http://www.w3.org/TR/2001/REC-SVG-20010904/DTD/svg10.dtd">
<svg version="1.0" xmlns="http://www.w3.org/2000/svg"
 width="800.000000pt" height="800.000000pt" viewBox="0 0 800.000000 800.000000"
 preserveAspectRatio="xMidYMid meet">

<g transform="translate(0.000000,800.000000) scale(0.100000,-0.100000)"
fill="#886845" stroke="none">
<path d="M1899 6621 c-26 -10 -63 -31 -83 -46 -44 -33 -100 -109 -111 -150 -5
-16 -11 -475 -14 -1020 -4 -554 -10 -998 -15 -1009 -17 -35 -96 -12 -291 86
-104 52 -232 137 -309 205 -103 93 -135 107 -240 108 -74 0 -100 -4 -138 -22
-64 -31 -129 -100 -151 -160 -23 -64 -23 -189 0 -240 22 -50 240 -263 268
-263 3 0 21 -11 38 -24 44 -33 183 -117 234 -141 24 -11 43 -23 43 -27 0 -5 7
-8 15 -8 8 0 36 -11 63 -23 98 -49 202 -89 302 -117 94 -26 141 -45 158 -63
16 -18 17 -96 23 -1056 4 -570 10 -1048 14 -1064 4 -15 11 -30 16 -33 5 -3 9
-14 9 -25 0 -11 29 -48 63 -83 60 -59 68 -64 131 -76 132 -25 233 4 306 86 38
44 55 86 64 154 17 145 30 3192 18 4120 -10 746 -7 715 -94 806 -95 100 -206
129 -319 85z"/>
<path d="M3240 6299 c-41 -5 -83 -14 -92 -19 -10 -6 -26 -10 -35 -10 -32 -1
-171 -84 -227 -137 -60 -56 -144 -184 -163 -248 -6 -22 -17 -60 -24 -85 -8
-24 -14 -83 -14 -130 0 -89 23 -240 37 -240 4 0 8 -6 8 -14 0 -18 29 -73 53
-100 9 -11 17 -24 17 -28 0 -29 215 -208 250 -208 5 0 18 -4 28 -9 69 -37 213
-66 284 -58 143 16 223 46 338 124 78 54 169 149 170 180 0 6 3 13 8 15 12 5
50 89 71 158 26 83 29 274 5 347 -34 106 -87 192 -165 273 -43 44 -81 80 -84
80 -4 0 -21 11 -38 24 -90 68 -272 105 -427 85z"/>
<path d="M4910 5475 c-93 -18 -180 -50 -248 -90 -60 -35 -187 -154 -203 -190
-5 -11 -25 -47 -44 -80 -18 -33 -34 -69 -34 -81 -1 -11 -4 -24 -8 -28 -5 -4
-13 -47 -19 -94 -8 -66 -8 -107 2 -172 17 -114 47 -210 66 -210 4 0 8 -6 9
-12 1 -27 89 -136 150 -185 35 -29 68 -53 72 -53 5 0 22 -9 38 -21 84 -60 310
-87 459 -55 194 41 362 181 430 358 11 29 25 62 30 73 41 91 38 322 -6 422 -8
17 -14 34 -14 37 0 10 -51 86 -99 149 -42 55 -171 157 -231 184 -54 24 -117
41 -170 47 -30 4 -68 8 -85 10 -16 2 -59 -2 -95 -9z"/>
<path d="M3265 4635 c-5 -1 -46 -13 -90 -25 -222 -62 -405 -243 -461 -455 -24
-93 -6 -282 37 -405 34 -95 47 -112 74 -90 8 7 36 -14 99 -75 49 -47 94 -85
100 -85 15 0 46 -32 46 -47 0 -16 33 -41 65 -49 17 -4 36 -11 43 -17 23 -18
279 -13 347 7 112 33 194 78 252 136 52 53 143 191 143 217 0 7 4 21 9 31 37
73 41 96 41 221 0 111 -3 137 -25 196 -45 124 -143 255 -243 321 -31 22 -58
42 -60 47 -2 4 -9 7 -16 7 -7 0 -30 9 -53 20 -72 35 -255 62 -308 45z m-445
-945 c0 -5 -5 -10 -11 -10 -5 0 -7 5 -4 10 3 6 8 10 11 10 2 0 4 -4 4 -10z"/>
<path d="M6480 4614 c-293 -108 -427 -280 -467 -597 -6 -53 13 -188 34 -227 7
-14 13 -33 13 -42 0 -10 5 -18 10 -18 6 0 10 -6 10 -13 0 -43 156 -220 231
-262 64 -36 148 -74 185 -84 49 -13 317 -15 342 -2 36 18 93 41 102 41 10 0
79 46 148 98 35 26 107 121 137 181 55 108 65 159 65 323 0 94 -4 159 -10 163
-5 3 -10 14 -10 24 0 60 -106 214 -203 294 -74 62 -181 118 -260 136 -26 6
-96 11 -155 10 -87 -1 -119 -5 -172 -25z"/>
<path d="M4875 3796 c-102 -22 -172 -54 -265 -121 -113 -81 -210 -232 -237
-369 -16 -83 -18 -305 -3 -320 5 -5 10 -18 10 -27 0 -15 38 -95 73 -154 17
-28 125 -135 167 -166 76 -56 141 -84 276 -118 163 -42 421 43 559 184 47 49
101 134 124 195 7 19 19 49 27 65 25 58 38 209 25 288 -15 89 -38 161 -68 209
-13 21 -23 40 -23 43 0 19 -143 162 -203 203 -63 43 -145 75 -212 84 -119 15
-191 17 -250 4z"/>
<path d="M3195 2946 c-102 -24 -220 -94 -317 -189 -66 -65 -82 -86 -124 -165
-47 -89 -64 -158 -64 -265 0 -93 4 -119 33 -222 31 -109 171 -274 284 -332 71
-37 77 -40 103 -51 103 -43 294 -49 405 -14 124 40 175 72 266 162 92 92 118
136 163 279 32 100 37 265 10 347 -18 56 -72 170 -88 187 -6 7 -27 32 -46 57
-19 25 -38 46 -42 48 -4 2 -24 17 -45 34 -49 38 -138 90 -183 105 -98 33 -256
41 -355 19z"/>
</g>
</svg>
